<svg width="25" height="25" viewBox="0 0 25 25" fill="none" xmlns="http://www.w3.org/2000/svg">
<g id="financial 1">
<g id="Group">
<g id="Group_2">
<g id="Group_3">
<g id="Group_4">
<path id="Vector" d="M22.312 21.6556H7.29876C7.01497 21.6556 6.78491 21.4255 6.78491 21.1418V14.0588C6.78491 13.775 7.01497 13.5449 7.29876 13.5449H22.312C22.5958 13.5449 22.8258 13.775 22.8258 14.0588V21.1418C22.8258 21.4255 22.5958 21.6556 22.312 21.6556Z" fill="#5A7A39"/>
</g>
<g id="Group_5">
<path id="Vector_2" d="M21.4556 20.7992H6.44234C6.15856 20.7992 5.9285 20.5691 5.9285 20.2853V13.2023C5.9285 12.9185 6.15856 12.6885 6.44234 12.6885H21.4556C21.7393 12.6885 21.9694 12.9185 21.9694 13.2023V20.2853C21.9694 20.5691 21.7393 20.7992 21.4556 20.7992Z" fill="#648940"/>
</g>
<g id="Group_6">
<path id="Vector_3" d="M20.5991 19.9427H5.58594C5.30216 19.9427 5.0721 19.7127 5.0721 19.4289V12.3459C5.0721 12.0621 5.30216 11.832 5.58594 11.832H20.5991C20.8828 11.832 21.1129 12.0621 21.1129 12.3459V19.4289C21.113 19.7127 20.8829 19.9427 20.5991 19.9427Z" fill="#76A34F"/>
</g>
<g id="Group_7">
<path id="Vector_4" d="M20.409 17.1848V14.5897C20.409 14.5002 20.34 14.4272 20.2509 14.4194C19.3541 14.3417 18.6395 13.6088 18.5651 12.6897C18.5578 12.6004 18.4844 12.531 18.3948 12.531H7.79019C7.70047 12.531 7.62716 12.6004 7.61994 12.6897C7.5455 13.6088 6.83094 14.3416 5.93413 14.4194C5.84506 14.4271 5.77597 14.5002 5.77597 14.5897V17.1848C5.77597 17.2742 5.84497 17.3472 5.93413 17.355C6.83094 17.4327 7.5455 18.1657 7.61994 19.0847C7.62716 19.174 7.70056 19.2434 7.79019 19.2434H18.3949C18.4846 19.2434 18.5579 19.174 18.5652 19.0847C18.6396 18.1657 19.3542 17.4328 20.251 17.355C20.34 17.3473 20.409 17.2742 20.409 17.1848Z" fill="#91B56B"/>
</g>
<g id="Group_8">
<path id="Vector_5" d="M13.0925 18.5339C14.5541 18.5339 15.739 17.349 15.739 15.8874C15.739 14.4258 14.5541 13.241 13.0925 13.241C11.6309 13.241 10.446 14.4258 10.446 15.8874C10.446 17.349 11.6309 18.5339 13.0925 18.5339Z" fill="white"/>
</g>
<g id="Group_9">
<g id="Group_10">
<path id="Vector_6" d="M13.3543 17.5154H12.8306C12.3661 17.5154 11.9883 17.1376 11.9883 16.6731C11.9883 16.5696 12.0723 16.4856 12.1758 16.4856C12.2793 16.4856 12.3633 16.5696 12.3633 16.6731C12.3633 16.9307 12.5729 17.1404 12.8306 17.1404H13.3543C13.612 17.1404 13.8216 16.9307 13.8216 16.6731V16.4112C13.8216 16.1536 13.612 15.944 13.3543 15.944H12.8306C12.3661 15.944 11.9883 15.5662 11.9883 15.1018C11.9883 14.6373 12.3661 14.2595 12.8306 14.2595H13.3543C13.8188 14.2595 14.1966 14.6373 14.1966 15.1018C14.1966 15.2053 14.1126 15.2893 14.0091 15.2893C13.9056 15.2893 13.8216 15.2053 13.8216 15.1018C13.8216 14.8441 13.612 14.6345 13.3543 14.6345H12.8306C12.5729 14.6345 12.3633 14.8441 12.3633 15.1018C12.3633 15.3594 12.5729 15.569 12.8306 15.569H13.3543C13.8188 15.569 14.1966 15.9468 14.1966 16.4112V16.6731C14.1967 17.1376 13.8188 17.5154 13.3543 17.5154Z" fill="#648940"/>
</g>
<g id="Group_11">
<path id="Vector_7" d="M13.0925 17.7772C12.989 17.7772 12.905 17.6932 12.905 17.5897V14.1851C12.905 14.0816 12.989 13.9976 13.0925 13.9976C13.196 13.9976 13.28 14.0816 13.28 14.1851V17.5897C13.28 17.6933 13.1961 17.7772 13.0925 17.7772Z" fill="#648940"/>
</g>
</g>
</g>
<g id="Group_12">
<g id="Group_13">
<g id="Group_14">
<path id="Vector_8" d="M6.7791 14.6268C9.32232 14.6268 11.384 12.5651 11.384 10.0219C11.384 7.47868 9.32232 5.41699 6.7791 5.41699C4.23588 5.41699 2.17419 7.47868 2.17419 10.0219C2.17419 12.5651 4.23588 14.6268 6.7791 14.6268Z" fill="#FFA91A"/>
</g>
<g id="Group_15">
<path id="Vector_9" d="M2.8597 10.2097C2.75648 10.2097 2.6722 10.1254 2.6722 10.0222C2.6722 9.91903 2.75648 9.83466 2.8597 9.83466C2.96282 9.83466 3.0472 9.91903 3.0472 10.0222C3.0472 10.1254 2.96282 10.2097 2.8597 10.2097ZM2.93095 9.46444C2.9197 9.46444 2.90751 9.46341 2.89532 9.46069C2.84563 9.45122 2.80345 9.42319 2.77532 9.38194C2.7472 9.34069 2.73688 9.29006 2.74626 9.24131C2.9347 8.27006 3.47001 7.39716 4.25563 6.78403C4.46188 6.62278 4.68501 6.48038 4.91657 6.36216C5.00657 6.31631 5.12282 6.35372 5.16876 6.44372C5.1922 6.48788 5.19595 6.53944 5.18001 6.58716C5.16501 6.63403 5.1322 6.67341 5.0872 6.69591C4.87626 6.80372 4.67376 6.93309 4.48626 7.07934C3.77291 7.63716 3.28532 8.42934 3.1147 9.31059V9.31256C3.09782 9.40059 3.02095 9.46444 2.93095 9.46444Z" fill="#FFC91D"/>
</g>
<g id="Group_16">
<path id="Vector_10" d="M9.41292 6.24561C9.93454 6.99214 10.2415 7.89973 10.2415 8.87942C10.2415 11.4227 8.17982 13.4842 5.63667 13.4842C4.65688 13.4842 3.74929 13.1773 3.00285 12.6557C3.83526 13.8469 5.21573 14.6267 6.7792 14.6267C9.32235 14.6267 11.384 12.565 11.384 10.0219C11.3839 8.45848 10.6041 7.07801 9.41292 6.24561Z" fill="#F79219"/>
</g>
<g id="Group_17">
<path id="Vector_11" d="M9.73654 6.49316C10.4079 7.29332 10.8127 8.32457 10.8127 9.4507C10.8127 11.9939 8.75104 14.0555 6.20788 14.0555C5.08176 14.0555 4.05051 13.6507 3.25035 12.9794C4.09504 13.9861 5.36207 14.6267 6.7791 14.6267C9.32226 14.6267 11.3839 12.5651 11.3839 10.0219C11.3839 8.60488 10.7433 7.33785 9.73654 6.49316Z" fill="#EF7816"/>
</g>
</g>
<g id="Group_18">
<g id="Group_19">
<path id="Vector_12" d="M7.19816 12.6238H6.35994C5.67876 12.6238 5.12469 12.0698 5.12469 11.3886C5.12469 11.2851 5.20869 11.2011 5.31219 11.2011C5.41569 11.2011 5.49969 11.2851 5.49969 11.3886C5.49969 11.863 5.88557 12.2488 6.35994 12.2488H7.19816C7.67254 12.2488 8.05841 11.863 8.05841 11.3886V10.9694C8.05841 10.495 7.67254 10.1092 7.19816 10.1092H6.35994C5.67876 10.1092 5.12469 9.55511 5.12469 8.87392C5.12469 8.19273 5.67876 7.63867 6.35994 7.63867H7.19816C7.87935 7.63867 8.43341 8.19273 8.43341 8.87392C8.43341 8.97742 8.34941 9.06142 8.24591 9.06142C8.14241 9.06142 8.05841 8.97742 8.05841 8.87392C8.05841 8.39955 7.67254 8.01367 7.19816 8.01367H6.35994C5.88557 8.01367 5.49969 8.39955 5.49969 8.87392C5.49969 9.3483 5.88557 9.73417 6.35994 9.73417H7.19816C7.87935 9.73417 8.43341 10.2882 8.43341 10.9694V11.3886C8.43341 12.0698 7.87935 12.6238 7.19816 12.6238Z" fill="white"/>
</g>
<g id="Group_20">
<path id="Vector_13" d="M6.7791 13.0429C6.6756 13.0429 6.5916 12.9589 6.5916 12.8554V7.40723C6.5916 7.30373 6.6756 7.21973 6.7791 7.21973C6.8826 7.21973 6.9666 7.30373 6.9666 7.40723V12.8554C6.9666 12.959 6.8826 13.0429 6.7791 13.0429Z" fill="white"/>
</g>
</g>
</g>
</g>
<g id="Group_21">
<g id="Group_22">
<path id="Vector_14" d="M16.5218 10.5732C18.5179 10.5732 20.1361 8.95497 20.1361 6.95883C20.1361 4.96268 18.5179 3.34448 16.5218 3.34448C14.5256 3.34448 12.9074 4.96268 12.9074 6.95883C12.9074 8.95497 14.5256 10.5732 16.5218 10.5732Z" fill="#76A34F"/>
</g>
<g id="Group_23">
<path id="Vector_15" d="M19.0775 4.40312C18.9678 4.29343 18.8522 4.19321 18.7327 4.10059C19.832 5.51837 19.7319 7.56549 18.4302 8.8673C17.1283 10.1691 15.0812 10.2692 13.6634 9.16984C13.7562 9.28937 13.8563 9.40496 13.966 9.51465C15.3775 10.9261 17.6659 10.9261 19.0774 9.51465C20.4889 8.10315 20.489 5.81462 19.0775 4.40312Z" fill="#648940"/>
</g>
<g id="Group_24">
<g id="Group_25">
<path id="Vector_16" d="M16.1303 8.87421C15.9681 8.87421 15.8061 8.81233 15.6823 8.68868L14.4349 7.44124C14.1876 7.19383 14.1876 6.79277 14.4349 6.54536C14.6823 6.29805 15.0834 6.29805 15.3308 6.54536L16.1303 7.34496L17.7169 5.75824C17.9643 5.51093 18.3654 5.51093 18.6128 5.75824C18.8601 6.00564 18.8601 6.40671 18.6128 6.65411L16.5782 8.68868C16.4545 8.81233 16.2924 8.87421 16.1303 8.87421Z" fill="#FFC91D"/>
</g>
</g>
<g id="Group_26">
<g id="Group_27">
<path id="Vector_17" d="M15.8713 7.08616L15.3308 6.5455L15.3306 6.54541L15.8713 7.08616Z" fill="#377DE2"/>
</g>
<g id="Group_28">
<path id="Vector_18" d="M18.6128 5.75848C18.5674 5.7132 18.5159 5.67908 18.462 5.65039C18.59 5.89002 18.5558 6.19339 18.3538 6.39542L16.3192 8.42998C16.1954 8.55364 16.0334 8.61552 15.8713 8.61552C15.7091 8.61552 15.5471 8.55364 15.4233 8.42998L15.6823 8.68892C15.806 8.81258 15.968 8.87445 16.1302 8.87445C16.2924 8.87445 16.4544 8.81258 16.5781 8.68892L18.6127 6.65436C18.8602 6.40686 18.8602 6.00589 18.6128 5.75848Z" fill="#FFA91A"/>
</g>
</g>
</g>
</g>
</g>
</svg>
