<svg width="20" height="20" viewBox="0 0 20 20" fill="none" xmlns="http://www.w3.org/2000/svg">
<g id="Frame" clip-path="url(#clip0_11_4690)">
<path id="Vector" d="M8.33334 6.66659V4.99992C8.33334 4.55789 8.50894 4.13397 8.8215 3.82141C9.13406 3.50885 9.55798 3.33325 10 3.33325H15.8333C16.2754 3.33325 16.6993 3.50885 17.0119 3.82141C17.3244 4.13397 17.5 4.55789 17.5 4.99992V14.9999C17.5 15.4419 17.3244 15.8659 17.0119 16.1784C16.6993 16.491 16.2754 16.6666 15.8333 16.6666H10C9.55798 16.6666 9.13406 16.491 8.8215 16.1784C8.50894 15.8659 8.33334 15.4419 8.33334 14.9999V13.3333" stroke="#666768" stroke-width="1.5" stroke-linecap="round" stroke-linejoin="round"/>
<path id="Vector_2" d="M12.5 10H2.5L5 7.5" stroke="#666768" stroke-width="1.5" stroke-linecap="round" stroke-linejoin="round"/>
<path id="Vector_3" d="M5 12.5L2.5 10" stroke="#666768" stroke-width="1.5" stroke-linecap="round" stroke-linejoin="round"/>
</g>
<defs>
<clipPath id="clip0_11_4690">
<rect width="20" height="20" fill="white"/>
</clipPath>
</defs>
</svg>
