<svg width="25" height="25" viewBox="0 0 25 25" fill="none" xmlns="http://www.w3.org/2000/svg">
<g id="transaction 1" clip-path="url(#clip0_11_6381)">
<g id="Group">
<g id="Group_2">
<g id="Group_3">
<g id="Group_4">
<path id="Vector" d="M17.5504 24.3108L22.0888 20.1192C22.392 19.8392 22.392 19.3602 22.0888 19.0802L17.5504 14.8885C17.0974 14.4702 16.3633 14.7915 16.3633 15.4081V17.1932H9.5702C9.25098 17.1932 8.99219 17.452 8.99219 17.7713V21.428C8.99219 21.7472 9.25098 22.006 9.5702 22.006H16.3633V23.7912C16.3633 24.4079 17.0974 24.7292 17.5504 24.3108Z" fill="#48ACFF"/>
<path id="Vector_2" d="M22.0888 20.1195L17.5503 24.3111C17.0975 24.7292 16.3635 24.4081 16.3635 23.7912V22.8987C18.5314 22.5584 20.1894 20.682 20.1894 18.4184C20.1894 17.983 20.128 17.562 20.0136 17.1636L22.0888 19.0803C22.3921 19.3601 22.3921 19.8392 22.0888 20.1195Z" fill="#229BFF"/>
<path id="Vector_3" d="M22.0888 20.1194L21.8342 20.3543H8.99237V17.7715C8.99237 17.4522 9.25112 17.193 9.57034 17.193H16.3635V15.408C16.3635 14.7916 17.0975 14.47 17.5503 14.8886L22.0888 19.0802C22.3921 19.36 22.3921 19.8391 22.0888 20.1194Z" fill="#229BFF"/>
<path id="Vector_4" d="M7.44965 10.1114L2.91117 5.91977C2.60798 5.63974 2.60798 5.16072 2.91117 4.88069L7.4496 0.68908C7.90261 0.270721 8.63667 0.592002 8.63667 1.2086V2.99378H15.4298C15.749 2.99378 16.0078 3.25258 16.0078 3.5718V7.22856C16.0078 7.54778 15.749 7.80658 15.4298 7.80658H8.63667V9.59177C8.63671 10.2085 7.90265 10.5297 7.44965 10.1114Z" fill="#FF4881"/>
<path id="Vector_5" d="M16.0077 5.55678V3.57162C16.0077 3.2524 15.7489 2.99365 15.4297 2.99365H15.0224C15.0224 3.93162 14.2701 5.20011 12.6393 5.55678H16.0077Z" fill="#FE255F"/>
<path id="Vector_6" d="M12.6778 2.9939H8.58974C8.13369 2.9939 7.76404 3.3636 7.76404 3.8196C7.76404 4.27565 8.13374 4.6453 8.58974 4.6453H12.6778C13.1339 4.6453 13.5035 4.2756 13.5035 3.8196C13.5035 3.3636 13.1339 2.9939 12.6778 2.9939Z" fill="#FC709B"/>
<path id="Vector_7" d="M10.8657 2.9939H10.0369C9.58081 2.9939 9.21115 3.3636 9.21115 3.8196C9.21115 4.27565 9.58085 4.6453 10.0369 4.6453H10.8657C11.3217 4.6453 11.6914 4.2756 11.6914 3.8196C11.6914 3.3636 11.3217 2.9939 10.8657 2.9939Z" fill="#F7A6C1"/>
</g>
<path id="Vector_8" d="M23.0938 19.4431H1.90631C1.12964 19.4431 0.500061 18.8136 0.500061 18.0369V6.96289C0.500061 6.18622 1.12964 5.55664 1.90631 5.55664H23.0938C23.8704 5.55664 24.5 6.18622 24.5 6.96289V18.0369C24.5 18.8135 23.8704 19.4431 23.0938 19.4431Z" fill="#29E088"/>
<path id="Vector_9" d="M24.5 6.96314V18.0369C24.5 18.8136 23.8705 19.4431 23.0938 19.4431H11.6352C17.1003 18.4583 21.246 13.678 21.246 7.9297C21.246 7.11688 21.163 6.32329 21.005 5.55688H23.0938C23.8705 5.55688 24.5 6.18642 24.5 6.96314Z" fill="#0CC166"/>
<path id="Vector_10" d="M24.5 14.2231V18.0369C24.5 18.8136 23.8705 19.4431 23.0938 19.4431H17.6469C20.6755 18.897 23.2044 16.9128 24.5 14.2231Z" fill="#04A550"/>
<path id="Vector_11" d="M22.8594 7.66626V16.865C22.8594 17.383 22.4399 17.8025 21.9219 17.8025H2.60944C2.35069 17.8025 2.14069 17.593 2.14069 17.3338V8.13501C2.14069 7.61704 2.56022 7.19751 3.07819 7.19751H22.3907C22.6494 7.19751 22.8594 7.40704 22.8594 7.66626Z" fill="#0CC166"/>
<path id="Vector_12" d="M22.8594 7.66626V16.865C22.8594 17.383 22.4399 17.8025 21.9219 17.8025H15.8263C19.085 15.7255 21.246 12.08 21.246 7.9297C21.246 7.6836 21.2385 7.43938 21.2235 7.19751H22.3907C22.6494 7.19751 22.8594 7.40704 22.8594 7.66626Z" fill="#04A550"/>
<path id="Vector_13" d="M12.5001 17.0703C14.7532 17.0703 16.5797 15.0241 16.5797 12.5C16.5797 9.97589 14.7532 7.92969 12.5001 7.92969C10.2469 7.92969 8.42038 9.97589 8.42038 12.5C8.42038 15.0241 10.2469 17.0703 12.5001 17.0703Z" fill="#04A550"/>
<path id="Vector_14" d="M16.5796 12.5C16.5796 15.0243 14.7533 17.0704 12.5 17.0704C11.1575 17.0704 9.96691 16.3443 9.22394 15.2235C9.7705 15.4602 10.3733 15.591 11.0066 15.591C13.49 15.591 15.5033 13.5777 15.5033 11.0943C15.5033 10.2435 15.2671 9.44755 14.856 8.7688C15.8989 9.59614 16.5796 10.9593 16.5796 12.5Z" fill="#00893E"/>
</g>
<path id="Vector_15" d="M13.7432 12.4464L11.8121 11.4631C11.7799 11.4466 11.7599 11.414 11.7599 11.3779C11.7599 11.3251 11.8028 11.2823 11.8555 11.2823H13.1445C13.1972 11.2823 13.2401 11.3251 13.2401 11.3779C13.2401 11.7158 13.514 11.9897 13.852 11.9897C14.1899 11.9897 14.4638 11.7158 14.4638 11.3779C14.4638 10.6504 13.8719 10.0585 13.1444 10.0585H13.1119V9.91655C13.1119 9.57863 12.8379 9.30469 12.5 9.30469C12.1621 9.30469 11.8881 9.57863 11.8881 9.91655V10.0585H11.8556C11.1281 10.0585 10.5362 10.6504 10.5362 11.3779C10.5362 11.8767 10.8123 12.3273 11.2569 12.5536L13.1879 13.5369C13.2201 13.5534 13.2401 13.586 13.2401 13.6222C13.2401 13.6749 13.1973 13.7178 13.1445 13.7178H11.8556C11.8028 13.7178 11.7599 13.6749 11.7599 13.6222C11.7599 13.2842 11.486 13.0103 11.1481 13.0103C10.8101 13.0103 10.5362 13.2842 10.5362 13.6222C10.5362 14.3497 11.1281 14.9416 11.8556 14.9416H11.8882V15.0835C11.8882 15.4214 12.1621 15.6953 12.5 15.6953C12.838 15.6953 13.1119 15.4214 13.1119 15.0835V14.9416H13.1445C13.872 14.9416 14.4639 14.3497 14.4639 13.6222C14.4639 13.1233 14.1877 12.6728 13.7432 12.4464Z" fill="#29E088"/>
<g id="Group_5">
<path id="Vector_16" d="M13.1979 12.1685L12.3574 11.7406C12.0563 11.5872 11.6878 11.7071 11.5345 12.0082C11.3812 12.3093 11.501 12.6777 11.8021 12.8311L12.6426 13.259C12.9438 13.4124 13.3122 13.2926 13.4655 12.9914C13.6189 12.6903 13.499 12.3219 13.1979 12.1685Z" fill="#79FF79"/>
<path id="Vector_17" d="M3.83053 9.82466H2.14069V8.13477C2.14069 7.61698 2.5604 7.19727 3.07819 7.19727H4.76808V8.88716C4.76803 9.40494 4.34831 9.82466 3.83053 9.82466Z" fill="#79FF79"/>
<path id="Vector_18" d="M22.8594 15.175V16.8649C22.8594 17.3829 22.4399 17.8024 21.9219 17.8024H20.2321V16.1125C20.2321 15.595 20.6516 15.175 21.1696 15.175H22.8594Z" fill="#79FF79"/>
</g>
<g id="Group_6">
<g id="Group_7">
<path id="Vector_19" d="M21.3016 9.46387H17.9144C17.5907 9.46387 17.3284 9.20155 17.3284 8.87793C17.3284 8.5543 17.5907 8.29199 17.9144 8.29199H21.3016C21.6252 8.29199 21.8875 8.5543 21.8875 8.87793C21.8875 9.20155 21.6252 9.46387 21.3016 9.46387Z" fill="#00893E"/>
</g>
<g id="Group_8">
<path id="Vector_20" d="M19.8453 8.29199H18.7734C18.4498 8.29199 18.1875 8.5543 18.1875 8.87793C18.1875 9.20155 18.4498 9.46387 18.7734 9.46387H19.8453C20.1689 9.46387 20.4312 9.20155 20.4312 8.87793C20.4312 8.55435 20.1688 8.29199 19.8453 8.29199Z" fill="#04A550"/>
</g>
<g id="Group_9">
<g id="Group_10">
<path id="Vector_21" d="M7.08566 16.708H3.69843C3.3748 16.708 3.11249 16.4457 3.11249 16.1221C3.11249 15.7984 3.3748 15.5361 3.69843 15.5361H7.08566C7.40929 15.5361 7.6716 15.7984 7.6716 16.1221C7.6716 16.4456 7.40924 16.708 7.08566 16.708Z" fill="#00893E"/>
</g>
<g id="Group_11">
<path id="Vector_22" d="M5.6091 15.5361H4.43661C4.11299 15.5361 3.85068 15.7984 3.85068 16.1221C3.85068 16.4457 4.11299 16.708 4.43661 16.708H5.6091C5.93272 16.708 6.19504 16.4457 6.19504 16.1221C6.19504 15.7984 5.93272 15.5361 5.6091 15.5361Z" fill="#04A550"/>
</g>
</g>
</g>
<g id="Group_12">
<g id="Group_13">
<g id="Group_14">
<g id="Group_15">
<path id="Vector_23" d="M15.4874 10.0078C15.8757 10.0078 16.1905 9.69301 16.1905 9.30469C16.1905 8.91636 15.8757 8.60156 15.4874 8.60156C15.099 8.60156 14.7842 8.91636 14.7842 9.30469C14.7842 9.69301 15.099 10.0078 15.4874 10.0078Z" fill="#79FF79"/>
</g>
</g>
<g id="Group_16">
<g id="Group_17">
<path id="Vector_24" d="M15.4874 16.3984C15.8757 16.3984 16.1905 16.0836 16.1905 15.6953C16.1905 15.307 15.8757 14.9922 15.4874 14.9922C15.099 14.9922 14.7842 15.307 14.7842 15.6953C14.7842 16.0836 15.099 16.3984 15.4874 16.3984Z" fill="#79FF79"/>
</g>
</g>
</g>
<g id="Group_18">
<g id="Group_19">
<g id="Group_20">
<path id="Vector_25" d="M9.5127 10.0078C9.90102 10.0078 10.2158 9.69301 10.2158 9.30469C10.2158 8.91636 9.90102 8.60156 9.5127 8.60156C9.12437 8.60156 8.80957 8.91636 8.80957 9.30469C8.80957 9.69301 9.12437 10.0078 9.5127 10.0078Z" fill="#79FF79"/>
</g>
</g>
<g id="Group_21">
<g id="Group_22">
<path id="Vector_26" d="M9.5127 16.3984C9.90102 16.3984 10.2158 16.0836 10.2158 15.6953C10.2158 15.307 9.90102 14.9922 9.5127 14.9922C9.12437 14.9922 8.80957 15.307 8.80957 15.6953C8.80957 16.0836 9.12437 16.3984 9.5127 16.3984Z" fill="#79FF79"/>
</g>
</g>
</g>
</g>
<g id="Group_23">
<g id="Group_24">
<g id="Group_25">
<path id="Vector_27" d="M16.6453 13.2031C17.0336 13.2031 17.3484 12.8883 17.3484 12.5C17.3484 12.1117 17.0336 11.7969 16.6453 11.7969C16.257 11.7969 15.9422 12.1117 15.9422 12.5C15.9422 12.8883 16.257 13.2031 16.6453 13.2031Z" fill="#29E088"/>
</g>
</g>
<g id="Group_26">
<g id="Group_27">
<path id="Vector_28" d="M8.35471 13.2031C8.74303 13.2031 9.05783 12.8883 9.05783 12.5C9.05783 12.1117 8.74303 11.7969 8.35471 11.7969C7.96638 11.7969 7.65158 12.1117 7.65158 12.5C7.65158 12.8883 7.96638 13.2031 8.35471 13.2031Z" fill="#29E088"/>
</g>
</g>
</g>
<path id="Vector_29" d="M14.7042 5.55688H6.56339C6.11034 5.55688 5.74307 5.92415 5.74307 6.3772C5.74307 6.83024 6.11034 7.19751 6.56339 7.19751H14.7042C15.1573 7.19751 15.5245 6.83024 15.5245 6.3772C15.5245 5.92415 15.1572 5.55688 14.7042 5.55688Z" fill="#79FF79"/>
<path id="Vector_30" d="M12.0253 5.55688H8.79092C8.33788 5.55688 7.97061 5.92415 7.97061 6.3772C7.97061 6.83024 8.33788 7.19751 8.79092 7.19751H12.0253C12.4783 7.19751 12.8456 6.83024 12.8456 6.3772C12.8456 5.92415 12.4783 5.55688 12.0253 5.55688Z" fill="#C2FFC2"/>
<path id="Vector_31" d="M2.14069 16.4308V12.3181C2.14069 11.8651 1.77342 11.4978 1.32037 11.4978C0.867327 11.4978 0.500061 11.8651 0.500061 12.3181V16.4308C0.500061 16.8839 0.867327 17.2511 1.32037 17.2511C1.77342 17.2511 2.14069 16.8839 2.14069 16.4308Z" fill="#79FF79"/>
<path id="Vector_32" d="M0.500061 13.6311V14.2103C0.500061 14.6633 0.867327 15.0306 1.32037 15.0306C1.77342 15.0306 2.14069 14.6633 2.14069 14.2103V13.6311C2.14069 13.1781 1.77342 12.8108 1.32037 12.8108C0.867327 12.8108 0.500061 13.1781 0.500061 13.6311Z" fill="#C2FFC2"/>
<g id="Group_28">
<path id="Vector_33" d="M14.5708 20.3542H10.8577C10.4017 20.3542 10.032 20.724 10.032 21.18C10.032 21.636 10.4017 22.0057 10.8577 22.0057H14.5708C15.0268 22.0057 15.3965 21.636 15.3965 21.18C15.3965 20.7239 15.0268 20.3542 14.5708 20.3542Z" fill="#7CBAF7"/>
<path id="Vector_34" d="M12.8434 20.3542H12.0145C11.5585 20.3542 11.1888 20.724 11.1888 21.18C11.1888 21.636 11.5585 22.0057 12.0145 22.0057H12.8434C13.2994 22.0057 13.6691 21.636 13.6691 21.18C13.6691 20.7239 13.2994 20.3542 12.8434 20.3542Z" fill="#A9CFFC"/>
</g>
</g>
<path id="Vector_35" d="M22.8594 16.6091V16.8651C22.8594 17.383 22.4399 17.8026 21.9219 17.8026H21.5009C21.9913 17.4487 22.4459 17.0484 22.8594 16.6091Z" fill="#0CC166"/>
</g>
</g>
<defs>
<clipPath id="clip0_11_6381">
<rect width="24" height="24" fill="white" transform="translate(0.5 0.5)"/>
</clipPath>
</defs>
</svg>
